<svg width="200" height="200" viewBox="0 0 200 200" fill="none" xmlns="http://www.w3.org/2000/svg">
<rect width="200" height="200" rx="5" fill="#272A2C"/>
<path d="M80.0334 87H43.1534C43.2068 84.2267 43.6868 81.7733 44.5934 79.64C45.5001 77.5067 46.7001 75.5867 48.1934 73.88C49.6868 72.1733 51.3668 70.6267 53.2334 69.24C55.1001 67.8 57.0201 66.44 58.9934 65.16C60.9668 63.8267 62.9134 62.4933 64.8334 61.16C66.8068 59.7733 68.5668 58.3067 70.1134 56.76C71.6601 55.2133 72.8068 53.64 73.5534 52.04C74.3534 50.3867 74.7534 48.44 74.7534 46.2C74.7534 44.3867 74.4068 42.7867 73.7134 41.4C73.0734 39.96 72.1668 38.76 70.9934 37.8C69.8734 36.7867 68.5401 36.04 66.9934 35.56C65.5001 35.0267 63.9001 34.76 62.1934 34.76C59.9001 34.76 57.9268 35.1867 56.2734 36.04C54.6734 36.8933 53.3668 38.04 52.3534 39.48C51.3401 40.92 50.5934 42.5733 50.1134 44.44C49.6868 46.3067 49.5001 48.28 49.5534 50.36H44.5134C44.4601 47.48 44.7801 44.84 45.4734 42.44C46.2201 39.9867 47.3401 37.88 48.8334 36.12C50.3268 34.36 52.1934 33 54.4334 32.04C56.7268 31.0267 59.3934 30.52 62.4334 30.52C64.8868 30.52 67.1534 30.8667 69.2334 31.56C71.3668 32.2 73.2068 33.1867 74.7534 34.52C76.3534 35.8 77.5801 37.4267 78.4334 39.4C79.3401 41.3733 79.7934 43.6667 79.7934 46.28C79.7934 48.6267 79.3934 50.76 78.5934 52.68C77.8468 54.6 76.8068 56.36 75.4734 57.96C74.1934 59.56 72.7001 61.0533 70.9934 62.44C69.3401 63.7733 67.5801 65.0267 65.7134 66.2C64.3801 67.1067 62.8068 68.12 60.9934 69.24C59.1801 70.3067 57.4201 71.5067 55.7134 72.84C54.0601 74.1733 52.5934 75.64 51.3134 77.24C50.0334 78.7867 49.2334 80.4933 48.9134 82.36H80.0334V87Z" fill="#FF8942"/>
<path d="M136.513 30.52C140.62 30.52 143.927 31.4267 146.433 33.24C148.993 35 150.967 37.2667 152.353 40.04C153.793 42.8133 154.753 45.9067 155.233 49.32C155.767 52.7333 156.033 56.0667 156.033 59.32C156.033 62.6267 155.767 65.9867 155.233 69.4C154.753 72.8133 153.793 75.9067 152.353 78.68C150.967 81.4533 148.993 83.72 146.433 85.48C143.927 87.24 140.62 88.12 136.513 88.12C132.46 88.12 129.153 87.24 126.593 85.48C124.033 83.72 122.033 81.4533 120.593 78.68C119.207 75.9067 118.247 72.8133 117.713 69.4C117.233 65.9867 116.993 62.6533 116.993 59.4C116.993 56.0933 117.233 52.7333 117.713 49.32C118.247 45.9067 119.207 42.8133 120.593 40.04C122.033 37.2667 124.033 35 126.593 33.24C129.153 31.4267 132.46 30.52 136.513 30.52ZM136.513 34.76C133.313 34.76 130.753 35.5867 128.833 37.24C126.913 38.8933 125.447 40.9467 124.433 43.4C123.473 45.8533 122.833 48.52 122.513 51.4C122.193 54.28 122.033 56.92 122.033 59.32C122.033 61.7733 122.193 64.44 122.513 67.32C122.833 70.1467 123.473 72.8133 124.433 75.32C125.447 77.7733 126.913 79.8267 128.833 81.48C130.753 83.1333 133.313 83.96 136.513 83.96C139.713 83.96 142.273 83.1333 144.193 81.48C146.113 79.8267 147.553 77.7733 148.513 75.32C149.527 72.8133 150.193 70.1467 150.513 67.32C150.833 64.44 150.993 61.7733 150.993 59.32C150.993 56.92 150.833 54.28 150.513 51.4C150.193 48.52 149.527 45.8533 148.513 43.4C147.553 40.9467 146.113 38.8933 144.193 37.24C142.273 35.5867 139.713 34.76 136.513 34.76Z" fill="#E8629E"/>
<path d="M154.033 164H117.153C117.207 161.227 117.687 158.773 118.593 156.64C119.5 154.507 120.7 152.587 122.193 150.88C123.687 149.173 125.367 147.627 127.233 146.24C129.1 144.8 131.02 143.44 132.993 142.16C134.967 140.827 136.913 139.493 138.833 138.16C140.807 136.773 142.567 135.307 144.113 133.76C145.66 132.213 146.807 130.64 147.553 129.04C148.353 127.387 148.753 125.44 148.753 123.2C148.753 121.387 148.407 119.787 147.713 118.4C147.073 116.96 146.167 115.76 144.993 114.8C143.873 113.787 142.54 113.04 140.993 112.56C139.5 112.027 137.9 111.76 136.193 111.76C133.9 111.76 131.927 112.187 130.273 113.04C128.673 113.893 127.367 115.04 126.353 116.48C125.34 117.92 124.593 119.573 124.113 121.44C123.687 123.307 123.5 125.28 123.553 127.36H118.513C118.46 124.48 118.78 121.84 119.473 119.44C120.22 116.987 121.34 114.88 122.833 113.12C124.327 111.36 126.193 110 128.433 109.04C130.727 108.027 133.393 107.52 136.433 107.52C138.887 107.52 141.153 107.867 143.233 108.56C145.367 109.2 147.207 110.187 148.753 111.52C150.353 112.8 151.58 114.427 152.433 116.4C153.34 118.373 153.793 120.667 153.793 123.28C153.793 125.627 153.393 127.76 152.593 129.68C151.847 131.6 150.807 133.36 149.473 134.96C148.193 136.56 146.7 138.053 144.993 139.44C143.34 140.773 141.58 142.027 139.713 143.2C138.38 144.107 136.807 145.12 134.993 146.24C133.18 147.307 131.42 148.507 129.713 149.84C128.06 151.173 126.593 152.64 125.313 154.24C124.033 155.787 123.233 157.493 122.913 159.36H154.033V164Z" fill="#88B4E9"/>
<path d="M68.5134 144.84V114.36H68.3534L47.2334 144.84H68.5134ZM42.6734 144.2L68.5934 107H73.1534V144.84H81.5534V149.08H73.1534V163H68.5134V149.08H42.6734V144.2Z" fill="#13919F"/>
</svg>
